<?xml version="1.0" encoding="UTF-8"?>
<svg id="Layer_1" xmlns="http://www.w3.org/2000/svg" version="1.1" viewBox="0 0 1536 1024">
  <!-- Generator: Adobe Illustrator 29.8.6, SVG Export Plug-In . SVG Version: 2.1.1 Build 1)  -->
  <defs>
    <style>
      .st0 {
        fill: #fff;
      }
    </style>
  </defs>
  <path class="st0" d="M1539.55-.72V1023.28H3.55V-.72h1536ZM522.55,416.28l2.03.57-1.04,89.43-2-66.99c-41.42,13.76-129.16,55.62-50.48,94.59l51.49-22.59v39.5c58.11,14.05,119.61,15.69,179,12v-82l144-20.49c.36,1.04-1,2.13-1,2.49v86.5c60.9-9.05,121.68-21.39,179.36-43l.64-2.5v-41.5l54.37,15.73c62.85-44.76-13.49-72.25-54.25-77.85l-.11-4.88c68.11,8.98,131.06,48.79,41.01,97.51-126.21,68.3-460.93,105.12-592.28,49.24-94.37-40.15-6.05-94.24,48.2-106.82-.54-6.42.49-12.62,1.06-18.94-75.81,17.99-206.03,94.88-60.76,142.26,150.3,49.02,420.7,20.23,569.71-31.81,31.5-11,129.85-47.15,107.93-94.75-13.25-28.77-86.06-44.7-114.45-51.64-1.82-42.76,2.83-85.91-5.91-128.09-12.41-59.94-51.78-108.24-105.24-136.76-9.14-4.88-58.88-27.05-65.9-21.31l-2.39,279.11-144.56,13.05-4.01-291.99-4.81-1.03c-71.6,17.61-139.63,70.11-159.91,143.18-16.22,58.45-4.34,120.14-9.72,179.78ZM392.55,506.28v68.5c0,64.41,154.86,81.79,199.52,84.48,131.06,7.88,370.62-12.32,489.15-68.81,71.85-34.24,70.22-57.29,65.38-134.72-.14-2.2-.15-7.04-2.04-8.45-.18,38.02-48.97,60.49-79.05,73.45-142.57,61.42-462.12,95.1-607.48,42.56-27.35-9.89-60.37-24.74-65.48-57.02ZM844.68,651.4l1.81,252.44,4.54,1.54c90.64-20.7,159.57-96.46,171.36-188.77,4.38-34.32,1.18-69.27,2.17-103.83-58.23,19.42-119.11,30.09-179.88,38.61ZM701.55,663.28c-59.66,1.67-120.65,3.52-178.99-10-.31,34.12,2.12,68.74,11.97,101.52,22.25,74.01,88.36,132.77,163.3,149.27l3.72-3.29v-237.5Z"/>
  <path d="M520.7,416.37c5.39-59.64-6.5-121.33,9.72-179.78,20.28-73.08,88.31-125.57,159.91-143.18l4.81,1.03,4.01,291.99,144.56-13.05,2.39-279.11c7.01-5.74,56.75,16.43,65.9,21.31,53.45,28.52,92.82,76.82,105.24,136.76,8.74,42.18,4.09,85.33,5.91,128.09,28.39,6.94,101.2,22.87,114.45,51.64,21.92,47.6-76.43,83.75-107.93,94.75-149.01,52.04-419.42,80.83-569.71,31.81-145.26-47.38-15.04-124.27,60.76-142.26,8.69-2.78,1.29,11.47,1.82,17.88-54.25,12.58-145.46,67.73-51.09,107.88,131.35,55.88,466.07,19.06,592.28-49.24,90.04-48.73,27.1-88.54-41.01-97.51l.11,4.88c40.76,5.6,117.1,33.09,54.25,77.85l-54.37-15.73v41.5l-.64,2.5c-57.68,21.61-118.46,33.95-179.36,43l-.3-91.95c0-.36,7.5-1.27,1.3,2.96l-144,20.49v82c-59.39,3.69-120.89,2.05-179-12v-39.5l-51.49,22.59c-78.68-38.97,12.62-81.66,54.04-95.41l-1.56,67.81,1.04-89.43-2.03-.57ZM854.7,107.38l-1.48,429,3.54-123.46-2.06-305.54ZM984.68,188.38l-1.97.48c13.13,25.11,19.67,52.97,22.97,81.03l1.01,233.49h7.01c-6.58-96.45,16.04-201.88-17.84-293.67l-11.19-21.32ZM557.7,193.38c-2.96.76-5.36,7.14-6.7,9.79-12.34,24.32-17.68,51.71-20.27,78.73l-.03,264.48,5.03-.59,1-263.89c2.44-30.39,7.98-60.81,20.98-88.51ZM692.7,556.38l-1.49-258.02-2.52,257.43,4.01.59ZM842.7,387.38c-47.94-.98-95.48,6.25-142.31,14.99l-.7,2.51,143.01-17.5Z"/>
  <path d="M390.7,506.37c5.11,32.28,38.13,47.13,65.48,57.02,145.36,52.55,464.9,18.87,607.48-42.56,30.08-12.96,78.87-35.43,79.05-73.45,1.88,1.4,1.9,6.25,2.04,8.45,4.84,77.43,6.47,100.47-65.38,134.72-118.52,56.49-358.08,76.68-489.15,68.81-44.67-2.68-199.52-20.07-199.52-84.48v-68.5Z"/>
  <path d="M842.83,651.49c60.77-8.52,121.66-19.2,179.88-38.61-.99,34.57,2.21,69.51-2.17,103.83-11.79,92.31-80.72,168.06-171.36,188.77l-4.54-1.54-1.81-252.44ZM952.1,838.78c55.43-46.3,69.46-141.51,60.59-209.4-2.81,24.33-1.4,48.96-4.13,73.34-5.73,51.06-26.43,100.13-60.84,138.16.06,3.71,4.18-1.93,4.39-2.11ZM852.7,897.36c4.17-81.41,5-163.59.51-245.01l-2.5,122.51,1.99,122.49Z"/>
  <path d="M699.7,663.37v237.5l-3.72,3.29c-74.94-16.5-141.05-75.26-163.3-149.27-9.85-32.77-12.28-67.4-11.97-101.52,58.34,13.52,119.32,11.67,178.99,10ZM602.7,847.36c-47.8-50.24-66.85-115.86-70.99-183.98-6.22,67.54,17.52,140.7,70.99,183.98ZM691.69,893.36c-.07-75.23,4.04-150.89-1.49-226.01-2.62,38.02-1.67,76.39-1.5,114.51.16,37.12-1.4,74.61,2.99,111.49Z"/>
  <path class="st0" d="M984.68,188.38l11.19,21.32c33.88,91.79,11.26,197.23,17.84,293.67h-7.01l-1.01-233.49c-3.3-28.06-9.84-55.92-22.97-81.03l1.97-.48Z"/>
  <path class="st0" d="M557.7,193.38c-12.99,27.7-18.54,58.12-20.98,88.51l-1,263.89-5.03.59.03-264.48c2.6-27.01,7.94-54.41,20.27-78.73,1.34-2.64,3.74-9.02,6.7-9.79Z"/>
  <polygon class="st0" points="854.7 107.38 856.75 412.92 853.21 536.38 854.7 107.38"/>
  <polygon class="st0" points="692.7 556.38 688.68 555.78 691.2 298.36 692.7 556.38"/>
  <path class="st0" d="M842.7,387.38l-143.01,17.5.7-2.51c46.83-8.75,94.37-15.97,142.31-14.99Z"/>
  <path class="st0" d="M852.7,897.36l-1.99-122.49,2.5-122.51c4.5,81.41,3.66,163.6-.51,245.01Z"/>
  <path class="st0" d="M952.1,838.78c-.21.18-4.33,5.81-4.39,2.11,34.42-38.03,55.11-87.1,60.84-138.16,2.74-24.38,1.32-49.01,4.13-73.34,8.87,67.89-5.15,163.1-60.59,209.4Z"/>
  <path class="st0" d="M602.7,847.36c-53.47-43.29-77.2-116.44-70.99-183.98,4.13,68.12,23.19,133.74,70.99,183.98Z"/>
  <path class="st0" d="M691.69,893.36c-4.39-36.89-2.83-74.38-2.99-111.49-.17-38.12-1.12-76.5,1.5-114.51,5.53,75.12,1.42,150.78,1.49,226.01Z"/>
</svg>